<?xml version="1.0" encoding="UTF-8"?> <svg xmlns="http://www.w3.org/2000/svg" id="圖層_1" data-name="圖層 1" viewBox="0 0 1000 135"><path d="M440.58,9.28h31.85L492.08,73.4,513.89,9.28H546l-39.43,116H474.46L454.9,61.46l-21.68,63.78H401.15Z" style="fill:#103770"></path><path d="M627,91.41h-61.1c-1.21,5.18-1.23,9,0,11.59q2.51,5.46,9.53,5.47a20.81,20.81,0,0,0,9.26-2.41,33.84,33.84,0,0,0,7.09-5.4l29.26,2.9q-11.21,12.69-22.83,18.19t-29.81,5.51q-15.79,0-23.26-4.71t-9.93-15q-2.47-10.24,2.24-24.11A65.54,65.54,0,0,1,560.3,51.55a59.94,59.94,0,0,1,37.18-12.2q17.1,0,25.14,5.48T632.3,60.7q1.63,10.39-4,27.06ZM601.09,76.08q2.32-9.47-.13-13.55t-8.7-4.09q-7.21,0-13.63,6.18-4.08,3.84-7.4,11.46Z" style="fill:#103770"></path><path d="M647.44,41.38h36.35l4.72,23.38,22.77-23.38h33.91L704.26,81.33l14.24,43.91H682.77l-5.63-27-26.45,27h-33.3l44-43.91Z" style="fill:#103770"></path><path d="M758.06,41.38H788.6l-28.51,83.86H729.55ZM769,9.28h30.54l-7.47,22H761.51Z" style="fill:#103770"></path><path d="M790.1,83.55a65.27,65.27,0,0,1,23.11-31.72,60.81,60.81,0,0,1,37.52-12.48c16,0,26.39,4.89,31.21,14.66q5.84,11.79,0,29.06a65.41,65.41,0,0,1-23,31.8q-16.42,12.41-38,12.39-19.18,0-27.59-10.29Q783.07,104.22,790.1,83.55Zm30.53,0q-3.79,11.25-1.33,16.64t9,5.38c4.42,0,8.63-1.77,12.66-5.31s7.37-9.21,10-17c2.47-7.28,2.9-12.71,1.25-16.28s-4.56-5.34-8.76-5.34q-6.69,0-12.87,5.43T820.63,83.56Z" style="fill:#103770"></path><path d="M910.79,41.38h28.45l-4.61,13.56q9.23-8.37,17-12a40.38,40.38,0,0,1,17.14-3.6q12.71,0,17.16,7.95t-1.18,24.56l-18.14,53.38H935.73L951.46,79c1.79-5.28,2.15-9,1-11.2s-3.3-3.29-6.64-3.29q-5.52,0-10.47,4.44t-8.84,15.92l-13.73,40.37H882.28Z" style="fill:#103770"></path><path d="M25,9.28H128.53L118.79,37.9H84l-29.7,87.34H20.37L50.06,37.9H15.24Z" style="fill:#103770"></path><path d="M193.37,91.41H132.28q-1.83,7.77,0,11.59c1.67,3.64,4.86,5.47,9.54,5.47a20.74,20.74,0,0,0,9.26-2.41,33.82,33.82,0,0,0,7.08-5.4l29.26,2.9q-11.19,12.69-22.81,18.19t-29.82,5.51q-15.81,0-23.27-4.71t-9.92-15q-2.47-10.24,2.24-24.11a65.54,65.54,0,0,1,22.82-31.92,59.89,59.89,0,0,1,37.17-12.2q17.1,0,25.15,5.48t9.67,15.87q1.65,10.39-4,27.06ZM167.43,76.08q2.32-9.47-.12-13.55t-8.71-4.09q-7.22,0-13.64,6.18-4.05,3.84-7.39,11.46Z" style="fill:#103770"></path><path d="M266.64,92.57,294.48,96A69,69,0,0,1,281,112.56a58.63,58.63,0,0,1-17.69,10.84q-9.84,3.87-23,3.86-12.71,0-20.31-2.49a23.24,23.24,0,0,1-11.78-8.06,26.61,26.61,0,0,1-5.09-13.11q-.9-7.5,3.33-19.94A67.77,67.77,0,0,1,218,62.06a64.18,64.18,0,0,1,12.29-11.35,60.43,60.43,0,0,1,13.51-7.48q10.26-3.87,24.24-3.88,19.55,0,27.32,7.31T302.49,68l-30.18,4.34c.37-3.73-.33-6.54-2.06-8.44s-4.6-2.84-8.6-2.84c-5.07,0-9.8,1.94-14.24,5.78s-8,9.67-10.64,17.48q-3.56,10.44-.75,15.85t10,5.43a20.78,20.78,0,0,0,11.16-3.2A30.85,30.85,0,0,0,266.64,92.57Z" style="fill:#103770"></path><path d="M335.45,9.28H366L351.49,51.94a66.4,66.4,0,0,1,15.68-9.68,40.89,40.89,0,0,1,15.56-2.91q12.45,0,16.91,8t-1.16,24.52l-18.16,53.38H349.48L365.2,79q2.69-7.92,1-11.2c-1.09-2.19-3.31-3.29-6.64-3.29-3.69,0-7.16,1.48-10.46,4.44s-6.24,8.27-8.84,15.92l-13.73,40.37H296Z" style="fill:#103770"></path></svg> 