<?xml version="1.0" encoding="UTF-8"?> <svg xmlns="http://www.w3.org/2000/svg" id="圖層_1" data-name="圖層 1" viewBox="0 0 974.58 181.62"><path d="M327,161.94v30.48h-4.12V161.94Z" transform="translate(-14.46 -11.34)" style="fill:#fff"></path><path d="M334.92,192.42V161.94h4.66l11.17,15.78a77.71,77.71,0,0,1,5.92,9.68l.14-.05a110.41,110.41,0,0,1-.45-12V161.94h3.89v30.48H356l-11-15.69a114.72,114.72,0,0,1-6.38-10.18l-.13,0c.22,3.8.27,7.42.27,12v13.84Z" transform="translate(-14.46 -11.34)" style="fill:#fff"></path><path d="M368.16,192.42V161.94h4.66L384,177.72a77.71,77.71,0,0,1,5.92,9.68l.14-.05a110.41,110.41,0,0,1-.45-12V161.94h3.89v30.48h-4.21l-11-15.69a114.72,114.72,0,0,1-6.38-10.18l-.13,0c.22,3.8.27,7.42.27,12v13.84Z" transform="translate(-14.46 -11.34)" style="fill:#fff"></path><path d="M430.84,176.86c0,10.13-7.23,16.1-15.92,16.1-9.09,0-15.46-6.56-15.46-15.42,0-9.5,6.73-16.15,15.82-16.15C424.65,161.39,430.84,168,430.84,176.86Zm-27,.54c0,6.61,4.34,12.3,11.3,12.3s11.35-5.42,11.35-12.66c0-6.19-3.84-12.39-11.26-12.39S403.8,170.57,403.8,177.4Z" transform="translate(-14.46 -11.34)" style="fill:#fff"></path><path d="M444.36,192.42l-11-30.48h4.44l5.33,15.28c1.49,4.3,2.72,7.83,3.62,11.26h.09c1-3.39,2.4-7.1,4-11.17l5.88-15.37h4.39l-12.17,30.48Z" transform="translate(-14.46 -11.34)" style="fill:#fff"></path><path d="M467.47,182.69,464,192.42H459.6l11.54-30.48h5l11.62,30.48H483.3l-3.66-9.73Zm11.26-3.16-3.52-9.14c-.73-1.94-1.18-3.52-1.68-5.06h-.09c-.45,1.58-.95,3.21-1.58,5l-3.48,9.23Z" transform="translate(-14.46 -11.34)" style="fill:#fff"></path><path d="M495.83,165.33H485.34v-3.39h25.19v3.39H500v27.09h-4.12Z" transform="translate(-14.46 -11.34)" style="fill:#fff"></path><path d="M542.77,176.86c0,10.13-7.23,16.1-15.92,16.1-9.09,0-15.46-6.56-15.46-15.42,0-9.5,6.74-16.15,15.83-16.15C536.58,161.39,542.77,168,542.77,176.86Zm-27,.54c0,6.61,4.34,12.3,11.3,12.3s11.36-5.42,11.36-12.66c0-6.19-3.85-12.39-11.27-12.39S515.73,170.57,515.73,177.4Z" transform="translate(-14.46 -11.34)" style="fill:#fff"></path><path d="M548.74,162.34a50.62,50.62,0,0,1,8.41-.67c4.57,0,7.51.85,9.5,2.62a7.51,7.51,0,0,1,2.49,5.74,8.1,8.1,0,0,1-6.06,7.74v.13c2.35.86,3.84,3.08,4.61,5.92,1.09,4.3,1.86,7.33,2.53,8.6H566a38.82,38.82,0,0,1-2.12-7.24c-1-4.16-2.76-5.79-6.51-6h-4.53v13.21h-4.07Zm4.07,13.8h4.89c4.52,0,7.32-2.22,7.32-5.66,0-4.11-3.34-5.69-7.59-5.69a21.64,21.64,0,0,0-4.62.4Z" transform="translate(-14.46 -11.34)" style="fill:#fff"></path><path d="M575.15,187.35a15.09,15.09,0,0,0,7.92,2.22c4.29,0,6.83-2.08,6.83-5.2,0-2.81-1.68-4.48-6.33-5.93-5.84-1.76-8.87-4.34-8.87-8.68,0-4.79,4.21-8.37,10.49-8.37a16.17,16.17,0,0,1,7.56,1.59l-1.18,3.3a13.46,13.46,0,0,0-6.47-1.58c-4.56,0-6.24,2.57-6.24,4.65,0,2.76,1.95,4.21,6.61,5.7,5.65,1.86,8.59,4.21,8.59,9,0,4.47-3.35,8.86-11.35,8.86a17.29,17.29,0,0,1-8.69-2.22Z" transform="translate(-14.46 -11.34)" style="fill:#fff"></path><path d="M641,176.86C641,187,633.72,193,625,193c-9.09,0-15.47-6.56-15.47-15.42,0-9.5,6.74-16.15,15.83-16.15C634.76,161.39,641,168,641,176.86Zm-27.05.54c0,6.61,4.34,12.3,11.31,12.3s11.35-5.42,11.35-12.66c0-6.19-3.85-12.39-11.26-12.39S613.91,170.57,613.91,177.4Z" transform="translate(-14.46 -11.34)" style="fill:#fff"></path><path d="M646.92,161.94h18v3.34H651v10h12.8v3.34H651v13.8h-4.12Z" transform="translate(-14.46 -11.34)" style="fill:#fff"></path><path d="M687.31,165.33H676.82v-3.39H702v3.39H691.43v27.09h-4.12Z" transform="translate(-14.46 -11.34)" style="fill:#fff"></path><path d="M723.26,178.17h-13.2v10.9h14.7v3.35H705.94V161.94H724v3.34h-14v9.55h13.2Z" transform="translate(-14.46 -11.34)" style="fill:#fff"></path><path d="M754.79,191.29a22.53,22.53,0,0,1-9.28,1.67c-9.49,0-16.64-5.65-16.64-15.56,0-8.73,6.6-16,17.64-16a19.54,19.54,0,0,1,8.37,1.54l-1,3.3a16.63,16.63,0,0,0-7.15-1.49c-8.46,0-13.48,5.07-13.48,12.62,0,6.83,4.57,12.16,13.16,12.16a18.83,18.83,0,0,0,7.56-1.44Z" transform="translate(-14.46 -11.34)" style="fill:#fff"></path><path d="M764.83,161.94V174.6H781.6V161.94h4.12v30.48H781.6V178.08H764.83v14.34h-4.12V161.94Z" transform="translate(-14.46 -11.34)" style="fill:#fff"></path><path d="M793.63,192.42V161.94h4.66l11.17,15.78a79.12,79.12,0,0,1,5.93,9.68l.13-.05a113,113,0,0,1-.45-12V161.94H819v30.48h-4.21l-11-15.69a114.48,114.48,0,0,1-6.37-10.18l-.14,0c.23,3.8.27,7.42.27,12v13.84Z" transform="translate(-14.46 -11.34)" style="fill:#fff"></path><path d="M856.32,176.86c0,10.13-7.24,16.1-15.92,16.1-9.09,0-15.47-6.56-15.47-15.42,0-9.5,6.74-16.15,15.83-16.15C850.12,161.39,856.32,168,856.32,176.86Zm-27.05.54c0,6.61,4.34,12.3,11.31,12.3s11.35-5.42,11.35-12.66c0-6.19-3.85-12.39-11.26-12.39S829.27,170.57,829.27,177.4Z" transform="translate(-14.46 -11.34)" style="fill:#fff"></path><path d="M862.28,161.94h4.12v27h14.52v3.44H862.28Z" transform="translate(-14.46 -11.34)" style="fill:#fff"></path><path d="M913.89,176.86c0,10.13-7.24,16.1-15.92,16.1-9.09,0-15.47-6.56-15.47-15.42,0-9.5,6.74-16.15,15.83-16.15C907.69,161.39,913.89,168,913.89,176.86Zm-27,.54c0,6.61,4.34,12.3,11.31,12.3S909.5,184.28,909.5,177c0-6.19-3.84-12.39-11.26-12.39S886.84,170.57,886.84,177.4Z" transform="translate(-14.46 -11.34)" style="fill:#fff"></path><path d="M945.82,190.83a30.88,30.88,0,0,1-10.68,1.9c-5.29,0-9.54-1.31-12.8-4.38a15.05,15.05,0,0,1-4.43-11c0-8.18,6.33-15.69,18.14-15.69a22.23,22.23,0,0,1,8.72,1.58l-1,3.26a19,19,0,0,0-7.83-1.49c-8.59,0-13.66,5.15-13.66,12.16,0,7.19,5,12.26,13.25,12.26a15.54,15.54,0,0,0,6.25-.95v-8.82h-6.88v-3.21h11Z" transform="translate(-14.46 -11.34)" style="fill:#fff"></path><path d="M960.42,192.42V179.48L949.8,161.94h4.74l4.84,8.68c1.27,2.35,2.26,4,3.26,6.11h.09c.95-1.9,2-3.8,3.35-6.11l5-8.68h4.74l-11.3,17.5v13Z" transform="translate(-14.46 -11.34)" style="fill:#fff"></path><path d="M440.64,11.34h31.91l19.7,64.25L514.1,11.34h32.13l-39.51,116.2H474.58L455,63.63l-21.73,63.91H401.13Z" transform="translate(-14.46 -11.34)" style="fill:#fff"></path><path d="M627.47,93.64H566.26c-1.22,5.19-1.24,9.06,0,11.61q2.5,5.48,9.55,5.48a20.92,20.92,0,0,0,9.28-2.41,34,34,0,0,0,7.1-5.41l29.32,2.9Q610.27,118.53,598.62,124t-29.87,5.52q-15.84,0-23.31-4.72t-10-15Q533,99.56,537.73,85.68a65.73,65.73,0,0,1,22.87-32,60,60,0,0,1,37.25-12.22q17.13,0,25.2,5.49c5.35,3.65,8.6,9,9.69,15.9s-.24,16-4,27.11Zm-26-15.36q2.34-9.48-.13-13.58t-8.72-4.1c-4.81,0-9.38,2.07-13.65,6.19-2.73,2.57-5.19,6.4-7.42,11.49Z" transform="translate(-14.46 -11.34)" style="fill:#fff"></path><path d="M647.91,43.51h36.42l4.73,23.42,22.82-23.42h34l-41,40,14.27,44H683.31l-5.64-27.07-26.5,27.07H617.8l44.07-44Z" transform="translate(-14.46 -11.34)" style="fill:#fff"></path><path d="M758.75,43.51h30.61l-28.57,84H730.18Zm10.94-32.17H800.3l-7.49,22h-30.6Z" transform="translate(-14.46 -11.34)" style="fill:#fff"></path><path d="M790.86,85.76A65.39,65.39,0,0,1,814,54a60.92,60.92,0,0,1,37.59-12.5q24,0,31.28,14.68,5.83,11.82,0,29.12a65.56,65.56,0,0,1-23.07,31.87q-16.46,12.42-38.06,12.41-19.23,0-27.64-10.31Q783.81,106.47,790.86,85.76Zm30.59,0c-2.53,7.52-3,13.07-1.33,16.67s4.66,5.4,9,5.4,8.64-1.78,12.68-5.32,7.38-9.23,10-17.07q3.72-11,1.26-16.31t-8.78-5.35q-6.69,0-12.89,5.44T821.45,85.77Z" transform="translate(-14.46 -11.34)" style="fill:#fff"></path><path d="M911.78,43.51h28.51L935.67,57.1q9.26-8.4,17-12a40.5,40.5,0,0,1,17.18-3.6q12.72,0,17.18,8t-1.17,24.61L967.7,127.54H936.78l15.76-46.33c1.79-5.29,2.15-9,1-11.23s-3.31-3.3-6.66-3.3q-5.52,0-10.48,4.45t-8.86,16l-13.76,40.46h-30.6Z" transform="translate(-14.46 -11.34)" style="fill:#fff"></path><path d="M24.21,11.34H128L118.21,40H83.32L53.57,127.54h-34L49.34,40H14.46Z" transform="translate(-14.46 -11.34)" style="fill:#fff"></path><path d="M192.94,93.64H131.73c-1.22,5.19-1.24,9.06,0,11.61q2.5,5.48,9.56,5.48a20.78,20.78,0,0,0,9.27-2.41,34,34,0,0,0,7.1-5.41l29.32,2.9Q175.74,118.53,164.1,124t-29.88,5.52q-15.84,0-23.31-4.72t-10-15q-2.47-10.29,2.25-24.17a65.71,65.71,0,0,1,22.86-32,60,60,0,0,1,37.25-12.22q17.15,0,25.2,5.49t9.69,15.9q1.66,10.41-4,27.11Zm-26-15.36q2.34-9.48-.12-13.58t-8.72-4.1q-7.23,0-13.66,6.19-4.08,3.85-7.41,11.49Z" transform="translate(-14.46 -11.34)" style="fill:#fff"></path><path d="M266.36,94.8l27.89,3.48a69,69,0,0,1-13.54,16.55A58.64,58.64,0,0,1,263,125.69q-9.85,3.87-23,3.87-12.72,0-20.34-2.49A23.27,23.27,0,0,1,207.8,119a26.69,26.69,0,0,1-5.1-13.13q-.9-7.53,3.33-20a68,68,0,0,1,11.58-21.65,64.44,64.44,0,0,1,12.31-11.38,60.35,60.35,0,0,1,13.53-7.48q10.29-3.9,24.3-3.89,19.59,0,27.37,7.32t7.15,21.36L272,74.51q.56-5.61-2.06-8.46c-1.73-1.89-4.61-2.84-8.62-2.84q-7.61,0-14.27,5.79T236.43,86.52q-3.57,10.45-.75,15.88t10,5.44a20.89,20.89,0,0,0,11.19-3.21A31,31,0,0,0,266.36,94.8Z" transform="translate(-14.46 -11.34)" style="fill:#fff"></path><path d="M335.3,11.34h30.61L351.37,54.09a66.32,66.32,0,0,1,15.71-9.69,40.85,40.85,0,0,1,15.59-2.92q12.48,0,16.95,8t-1.16,24.57l-18.2,53.49h-30.9l15.75-46.33c1.79-5.29,2.15-9,1-11.23s-3.32-3.3-6.65-3.3q-5.53,0-10.48,4.45t-8.86,16L326.4,127.54H295.8Z" transform="translate(-14.46 -11.34)" style="fill:#fff"></path></svg> 